<svg width="16" height="18" viewBox="0 0 16 18" fill="none" xmlns="http://www.w3.org/2000/svg">
<path d="M7.99997 17.8881L15.6974 13.4438L15.6973 4.55575L7.99997 0.111816L0.302673 4.55575V13.4438L7.99997 17.8881ZM2.04113 13.2425C1.60688 13.0694 1.25414 12.5713 1.25414 12.1295C1.25541 11.6877 1.60688 11.47 2.04113 11.6418C2.47542 11.8149 2.82816 12.3131 2.82816 12.7561C2.82816 13.1966 2.47542 13.4156 2.04113 13.2425ZM1.23324 9.8471C1.23324 9.40535 1.5847 9.18757 2.02027 9.35941C2.4532 9.53252 2.80599 10.0307 2.80599 10.4724C2.80599 10.9145 2.45325 11.1323 2.01895 10.9601C1.5847 10.787 1.23324 10.2879 1.23324 9.8471ZM2.04113 8.61822C1.60688 8.44511 1.25541 7.94725 1.25541 7.50518C1.25541 7.06343 1.60688 6.84564 2.04239 7.01875C2.47669 7.19088 2.82816 7.69 2.82816 8.13049C2.82816 8.57388 2.47542 8.79166 2.04113 8.61822ZM6.19242 15.6262C5.75813 15.4531 5.40539 14.9549 5.40539 14.5131C5.40666 14.0713 5.75813 13.8536 6.19242 14.0254C6.62667 14.1985 6.97941 14.6966 6.97941 15.1398C6.97945 15.5802 6.62667 15.7993 6.19242 15.6262ZM5.38453 12.2308C5.38453 11.789 5.73595 11.5713 6.17152 11.7431C6.60445 11.9162 6.95724 12.4143 6.95724 12.8561C6.95724 13.2982 6.6045 13.516 6.17025 13.3438C5.73595 13.1707 5.38453 12.6716 5.38453 12.2308ZM6.19242 11.0019C5.75813 10.8288 5.40666 10.3309 5.40666 9.88886C5.40666 9.44707 5.75813 9.22933 6.19369 9.40239C6.62799 9.57457 6.97941 10.0737 6.97941 10.5142C6.97945 10.9576 6.62667 11.1753 6.19242 11.0019ZM4.75242 4.21741C4.95544 3.89097 5.60527 3.66236 6.20592 3.70797C6.80489 3.75194 7.12603 4.05372 6.92335 4.37983C6.71935 4.70758 6.06952 4.93619 5.47022 4.89058C4.86956 4.8453 4.54842 4.54352 4.75242 4.21741ZM9.04331 4.53986C9.24595 4.21211 9.89719 3.98482 10.4965 4.02874C11.0958 4.07435 11.4182 4.3758 11.2139 4.70224C11.0113 5.02966 10.36 5.25729 9.76078 5.21304C9.16045 5.16743 8.83931 4.86597 9.04331 4.53986ZM12.7948 11.7003C12.4343 12.1486 11.9224 12.2402 11.6524 11.9077C11.3799 11.5742 11.4523 10.9413 11.8129 10.4944C12.1731 10.0461 12.6853 9.95416 12.9565 10.2881C13.2278 10.6202 13.1551 11.2533 12.7948 11.7003Z" fill="white"/>
</svg>
