<svg width="124" height="145" viewBox="0 0 124 145" fill="none" xmlns="http://www.w3.org/2000/svg">
<path d="M-8.49664 56.1197H123.334V58.5332H-8.49664V56.1197Z" fill="#5D80F6"/>
<path d="M119.563 58.5327L112.323 61.7006L107.044 64.6543H4.62571L0.703995 61.5935L-6.08363 58.5327H119.563Z" fill="#3B5AF3"/>
<path d="M12.6581 62.3415L16.4288 67.168L19.4077 80.7813L18.9928 91.7921L22.877 111.099L18.4274 119.018L-1.40759 141.191L31.6257 157.934L46.1058 128.219L73.1054 97.9008L102.066 65.1694L98.8982 61.7006L96.4852 63.0578L93.9207 60.4939H88.0384L50.329 86.5886L35.6979 83.5717L26.6478 63.6612L16.9947 59.2871L12.6581 62.3415Z" fill="#BB4FED"/>
<path d="M64.7652 76.5985L63.7538 69.9964L64.9408 64.6543L61.0576 64.6415L58.5498 67.7338L57.605 81.5533L64.7652 76.5985Z" fill="#5412A0"/>
<path d="M35.698 83.5717L38.4884 90.0573L38.7834 84.2076L35.698 83.5717Z" fill="#5412A0"/>
<path d="M96.4852 63.0578L64.3191 94.8276L65.111 99.4095L66.5555 94.4571L97.7669 64.9434L102.066 65.1694L98.8982 61.7006L96.4852 63.0578Z" fill="#5412A0"/>
<path d="M93.9207 60.4938L88.7261 66.7156L90.6561 68.8148L96.4852 63.0578L93.9207 60.4938Z" fill="#F0BBE7"/>
<path d="M102.066 65.1694L100.069 62.9828L97.7669 64.9435L94.9484 69.1765L97.0057 70.8884L102.066 65.1694Z" fill="#F0BBE7"/>
<path d="M16.9948 59.2871L21.0482 65.3016L16.4289 67.168L12.6582 62.3415L16.9948 59.2871Z" fill="#F0BBE7"/>
<path d="M22.877 111.099L20.313 121.281L4.72781 144.301L-1.40759 141.191L22.877 111.099Z" fill="#5412A0"/>
<path d="M88.0384 60.4938L78.6863 64.6543H82.0258L88.0384 60.4938Z" fill="#5412A0"/>
<path d="M56.2784 0.880789C56.31 0.880296 56.341 0.875854 56.3726 0.875854C59.4842 0.875854 62.0063 3.3984 62.0063 6.50952C62.0063 6.86622 61.9693 7.21404 61.9061 7.55199C53.1026 8.26193 54.5694 3.71514 56.2784 0.880789Z" fill="#BB4FED"/>
<path d="M56.3726 12.1437C53.261 12.1437 50.7389 9.62115 50.7389 6.51002C50.7389 3.43048 53.2107 0.931614 56.2784 0.880798C54.5694 3.71564 53.1026 8.26194 61.9061 7.55249C61.4167 10.1653 59.1275 12.1437 56.3726 12.1437Z" fill="#5412A0"/>
<path d="M12.6581 62.3415L13.0725 64.6415L14.4648 64.6544L12.6581 62.3415Z" fill="#5412A0"/>
<path d="M119.563 58.5327L116.645 59.8095L73.0299 59.1711L20.313 60.4938L16.9947 59.2871L15.2813 60.4938L-3.90942 59.5135L-6.08363 58.5327H119.563Z" fill="#5412A0"/>
<path d="M38.1115 28.3658L59.5168 9.27972C85.3891 10.5916 106.317 30.6353 109.011 56.1197H49.5989L36.4523 50.8403L38.1115 28.3658Z" fill="#F2BC36"/>
<path d="M56.8152 9.20966C57.7215 9.20966 58.6218 9.23432 59.5168 9.27971L38.1114 28.3658L36.4523 50.8403L49.5988 56.1197H4.61975C7.40624 29.7536 29.7105 9.20966 56.8152 9.20966Z" fill="#E87F31"/>
<path d="M79.1388 17.5805L86.2658 21.6912L91.9222 27.4605H85.0216L81.5148 23.2048L73.8218 19.5416L79.1388 17.5805Z" fill="#F5F792"/>
<path d="M72.2381 20.5599L78.6863 24.4061L81.1753 27.4605H75.6319L73.8218 25.3114L68.8443 22.5205L72.2381 20.5599Z" fill="#F5F792"/>
</svg>
