<svg width="24" height="24" viewBox="0 0 24 24" fill="none" xmlns="http://www.w3.org/2000/svg">
<path d="M20.9995 8.46907V6.89189C20.9995 4.74259 19.257 3 17.1067 3H15.8496" stroke="#A120F0" stroke-width="1.5" stroke-linecap="round" stroke-linejoin="round"/>
<path d="M3 8.46907V6.89189C3 4.74259 4.74259 3 6.89286 3H8.18205" stroke="#A120F0" stroke-width="1.5" stroke-linecap="round" stroke-linejoin="round"/>
<path d="M3 15.5312V17.1084C3 19.2577 4.74259 21.0003 6.89286 21.0003H8.14994" stroke="#A120F0" stroke-width="1.5" stroke-linecap="round" stroke-linejoin="round"/>
<path d="M20.9985 15.5312V17.1084C20.9985 19.2577 19.2559 21.0003 17.1056 21.0003H15.8164" stroke="#A120F0" stroke-width="1.5" stroke-linecap="round" stroke-linejoin="round"/>
<path d="M7.5 16.713H16.5" stroke="#A120F0" stroke-width="1.5" stroke-linecap="round" stroke-linejoin="round"/>
<path fill-rule="evenodd" clip-rule="evenodd" d="M14.7992 7.28906H9.19978C8.26086 7.28906 7.5 8.04993 7.5 8.98982V11.3687C7.5 12.3076 8.26086 13.0685 9.19978 13.0685H14.7992C15.7381 13.0685 16.5 12.3076 16.5 11.3687V8.98982C16.5 8.04993 15.7381 7.28906 14.7992 7.28906Z" stroke="#A120F0" stroke-width="1.5" stroke-linecap="round" stroke-linejoin="round"/>
</svg>
