<svg width="24" height="24" viewBox="0 0 24 24" fill="none" xmlns="http://www.w3.org/2000/svg">
<path d="M7.06405 19.9023L6.30417 20.2661C5.50537 20.6485 4.58106 20.0657 4.58203 19.1793L4.59176 6.92492C4.59176 4.50225 5.93931 3 8.35809 3H15.6572C18.0818 3 19.4002 4.50225 19.4002 6.92492L19.4177 19.1774C19.4187 20.0638 18.4944 20.6475 17.6946 20.2642L16.9406 19.9032C16.4872 19.6853 15.9627 19.6697 15.4967 19.8604L13.3503 20.7351C12.4854 21.0883 11.5153 21.0883 10.6504 20.7351L8.50792 19.8604C8.04188 19.6697 7.51745 19.6853 7.06405 19.9023Z" stroke="#A120F0" stroke-width="1.5" stroke-linecap="round" stroke-linejoin="round"/>
<path d="M14.8287 14.1972H9.17188M14.8287 9.80273H9.17188" stroke="#A120F0" stroke-width="1.5" stroke-linecap="round" stroke-linejoin="round"/>
</svg>
